<?xml version="1.0" encoding="UTF-8" standalone="no"?><!DOCTYPE svg PUBLIC "-//W3C//DTD SVG 1.1//EN" "http://www.w3.org/Graphics/SVG/1.1/DTD/svg11.dtd"><svg width="100%" height="100%" viewBox="0 0 1032 481" version="1.1" xmlns="http://www.w3.org/2000/svg" xmlns:xlink="http://www.w3.org/1999/xlink" xml:space="preserve" xmlns:serif="http://www.serif.com/" style="fill-rule:evenodd;clip-rule:evenodd;stroke-linejoin:round;stroke-miterlimit:2;"><rect id="Artboard1" x="0" y="0" width="1031.23" height="480.173" style="fill:none;"/><path d="M86.852,45.329l-22.187,13.692c-0.379,0.254 -0.758,0.379 -1.138,0.379c-0.508,-0 -1.016,-0.504 -1.52,-1.013c-0.384,-0.508 -0.638,-1.012 -0.638,-1.521c0,-0.379 0.254,-0.762 0.763,-1.141l18.891,-18.004c0.379,-0.38 1.013,-0.634 1.646,-0.634c1.396,0 2.917,0.763 4.058,2.284c0.759,1.141 1.267,2.537 1.267,3.55c0,1.016 -0.379,1.9 -1.142,2.408m13.059,109.787c-7.988,-0.25 -25.609,-0.758 -34.104,-0.758c-8.367,0 -25.988,0.508 -33.975,0.758c-0.634,0 -1.013,-0.758 -1.013,-1.775c0,-1.012 0.379,-1.645 1.013,-1.77c12.3,-1.396 13.058,-4.188 13.058,-10.655l-0,-59.708c-0,-6.596 -0.758,-9.254 -13.058,-10.779c-0.634,-0 -1.013,-0.758 -1.013,-1.771c0,-0.887 0.379,-1.779 1.013,-1.779c7.987,0.383 24.341,0.762 32.708,0.762c8.496,0 24.846,-0.379 32.833,-0.762c1.017,6.975 2.154,12.3 4.184,19.146c0.254,0.887 -0.759,1.521 -2.155,1.521c-0.758,-0 -1.266,-0.509 -1.391,-0.888c-3.679,-11.792 -12.046,-14.958 -20.034,-14.958l-12.804,-0c-3.296,-0 -7.35,1.396 -7.35,7.604l0,28.271l15.971,-0c6.592,-0 10.271,-1.013 11.792,-13.309c-0,-0.637 0.758,-1.016 1.775,-1.016c0.887,-0 1.775,0.379 1.775,1.016c-0,6.338 -0.763,9.634 -0.763,15.592c0,5.958 0.763,9.383 0.763,15.721c-0,0.504 -0.888,1.012 -1.775,1.012c-1.017,0 -1.775,-0.508 -1.775,-1.012c-1.521,-12.3 -5.2,-13.946 -11.792,-13.946l-15.971,0l0,31.188c0,6.208 4.054,7.479 7.35,7.479l13.821,-0c10.013,-0 21.171,-7.229 25.863,-17.242c0.25,-0.383 0.633,-0.508 1.137,-0.508c1.396,-0 2.538,1.012 2.283,1.65c-3.295,6.971 -5.829,13.054 -8.366,20.916" style="fill:#fff;fill-rule:nonzero;"/><path d="M180.79,131.537c-8.621,1.267 -9.255,3.675 -9.255,9.509l0,2.662c0,3.804 0.505,4.942 1.142,6.592c-8.875,3.546 -16.608,6.716 -26.117,6.716c-22.945,0 -34.354,-15.083 -34.354,-30.804c0,-16.862 13.563,-31.566 35.113,-31.566c9.004,-0 15.087,3.42 22.062,3.42c0.254,5.075 0.759,9.763 1.646,15.213c0.125,0.508 -0.758,0.762 -1.646,0.762c-0.887,0 -1.266,-0.254 -1.396,-0.762c-2.408,-8.871 -9.129,-15.083 -21.045,-15.083c-14.196,-0 -22.438,12.041 -22.438,28.016c0,15.338 8.242,27.129 22.058,27.129c9.763,0 13.567,-1.77 13.567,-9.125l0,-5.708c0,-5.071 -4.567,-5.575 -13.696,-6.717c-0.379,-0.129 -0.758,-0.762 -0.758,-1.65c-0,-1.012 0.379,-1.645 0.758,-1.645c5.963,-0 11.159,0.633 18.129,0.633c6.85,-0 10.4,-0.633 16.23,-0.633c0.379,-0 0.762,0.633 0.762,1.52c0,0.888 -0.383,1.521 -0.762,1.521" style="fill:#fff;fill-rule:nonzero;"/><path d="M237.33,155.117c-6.97,-0.383 -19.27,-0.762 -26.625,-0.762c-7.479,-0 -18.254,0.379 -23.958,0.762c-0.379,0 -0.633,-0.762 -0.633,-1.65c-0,-0.883 0.254,-1.521 0.633,-1.521c8.746,-1.266 9.379,-3.679 9.379,-9.508l0,-33.342c0,-5.704 -0.633,-8.112 -9.379,-9.379c-0.379,-0.129 -0.633,-0.762 -0.633,-1.521c-0,-0.891 0.254,-1.65 0.633,-1.65c5.958,0 8.113,0.634 14.958,0.634c6.975,-0 9.13,-0.634 14.963,-0.634c0.379,0 0.758,0.759 0.758,1.65c0,0.759 -0.379,1.392 -0.758,1.521c-8.621,1.267 -9.258,3.675 -9.258,9.379l-0,34.992c-0,5.575 3.679,6.721 6.595,6.721l3.421,-0c11.792,-0 16.484,-7.608 21.171,-17.371c0.129,-0.254 0.508,-0.504 1.017,-0.504c1.137,-0 2.029,0.887 1.9,1.517c-1.9,7.358 -3.042,12.425 -4.184,20.666" style="fill:#fff;fill-rule:nonzero;"/><path d="M278.912,155.117c-5.959,0 -8.113,-0.762 -14.959,-0.762c-6.975,-0 -9,0.762 -14.962,0.762c-0.375,0 -0.759,-0.762 -0.759,-1.65c0,-0.883 0.384,-1.521 0.759,-1.521c8.625,-1.266 9.258,-3.679 9.258,-9.508l0,-33.342c0,-5.704 -0.633,-8.112 -9.258,-9.379c-0.375,-0.129 -0.759,-0.762 -0.759,-1.521c0,-0.891 0.384,-1.65 0.759,-1.65c5.962,0 7.987,0.634 14.962,0.634c6.846,-0 9,-0.634 14.959,-0.634c0.379,0 0.633,0.759 0.633,1.65c-0,0.759 -0.254,1.392 -0.633,1.521c-8.746,1.267 -9.255,3.675 -9.255,9.379l0,33.342c0,5.829 0.509,8.242 9.255,9.508c0.379,0 0.633,0.638 0.633,1.521c-0,0.888 -0.254,1.65 -0.633,1.65" style="fill:#fff;fill-rule:nonzero;"/><path d="M313.392,157.017c-7.608,0 -10.395,-2.408 -18.254,-2.408c-0.383,-5.071 -0.887,-11.538 -1.396,-15.971c0,-0.508 0.763,-0.762 1.65,-0.762c0.759,-0 1.142,0.129 1.267,0.762c3.8,11.663 7.988,14.579 17.113,14.579c7.354,0 10.395,-3.929 10.395,-10.396c0,-13.82 -28.904,-13.82 -28.904,-30.937c0,-8.617 7.734,-17.238 19.65,-17.238c6.088,0 7.609,1.267 14.2,1.267c0.509,5.829 0.888,10.142 1.775,15.721c0.125,0.379 -0.633,0.762 -1.396,0.762c-0.887,0 -1.395,-0.258 -1.52,-0.762c-2.534,-10.271 -6.592,-13.438 -13.184,-13.438c-6.466,0 -9.508,3.296 -9.508,9.125c-0,11.284 28.775,13.567 28.775,30.171c-0,10.65 -7.225,19.525 -20.663,19.525" style="fill:#fff;fill-rule:nonzero;"/><path d="M392.626,155.117c-6.721,-0.383 -12.933,-0.762 -20.408,-0.762c-7.358,-0 -21.554,0.379 -27.258,0.762c-0.384,0 -0.634,-0.762 -0.634,-1.65c0,-0.883 0.25,-1.521 0.634,-1.521c8.745,-1.266 9.379,-3.679 9.379,-9.508l-0,-33.342c-0,-5.704 -0.634,-8.112 -9.379,-9.379c-0.384,-0.129 -0.634,-0.762 -0.634,-1.521c0,-0.891 0.25,-1.65 0.634,-1.65c5.704,0.255 18.762,0.634 26.116,0.634c7.479,-0 14.071,-0.379 20.788,-0.634c0.887,5.834 1.775,10.271 3.55,16.1c0.129,0.763 -0.634,1.267 -1.9,1.267c-0.509,0 -1.013,-0.375 -1.013,-0.758c-3.046,-9.888 -9.637,-12.296 -16.358,-12.296l-3.925,-0c-2.921,-0 -6.596,1.137 -6.596,6.592l0,15.337l6.467,0c5.833,0 9.129,-0.379 10.396,-9c-0,-0.379 0.762,-0.762 1.52,-0.762c0.888,-0 1.65,0.383 1.65,0.762c0,4.438 -0.637,6.846 -0.637,11.033c-0,4.18 0.637,6.592 0.637,11.025c0,0.384 -0.762,0.763 -1.65,0.763c-0.758,-0 -1.52,-0.379 -1.52,-0.763c-1.267,-8.616 -4.563,-9.508 -10.396,-9.508l-6.467,0l0,17.75c0,5.575 3.675,6.721 6.596,6.721l4.308,-0c8.492,-0 16.225,-5.838 20.284,-14.329c0.129,-0.25 0.504,-0.375 1.016,-0.375c1.013,-0 2.025,0.883 1.771,1.391c-2.658,5.83 -4.817,10.905 -6.971,17.621" style="fill:#fff;fill-rule:nonzero;"/><path d="M464.253,157.143c-10.904,0 -15.721,-3.925 -25.229,-3.925c-0.254,-6.85 -0.887,-15.466 -1.521,-21.554c0,-0.637 0.888,-1.012 1.904,-1.012c0.888,-0 1.392,0.25 1.646,1.012c4.563,15.717 10.9,21.421 23.709,21.421c10.9,0 16.1,-6.842 16.1,-16.858c-0,-20.413 -41.584,-22.059 -41.584,-46.654c0,-12.675 10.267,-24.592 27.004,-24.592c8.746,-0 11.534,2.279 19.521,2.279c0.509,7.229 1.017,12.679 2.029,19.654c0.125,0.504 -0.758,1.013 -1.645,1.013c-1.017,-0 -1.78,-0.254 -1.905,-1.013c-2.916,-12.933 -8.366,-17.879 -18.129,-17.879c-9.633,0 -15.466,6.213 -15.466,15.467c-0,18.258 41.329,21.808 41.329,45.133c-0,16.733 -10.65,27.508 -27.763,27.508" style="fill:#fff;fill-rule:nonzero;"/><path d="M523.455,111.506l-7.733,19.525l15.088,-0l-7.355,-19.525Zm33.721,43.612c-5.958,0 -7.733,-0.762 -12.675,-0.762c-5.579,-0 -8.112,0.762 -14.075,0.762c-0.379,0 -0.633,-0.762 -0.633,-1.65c-0,-0.887 0.129,-1.521 0.508,-1.521c5.45,-0.379 5.829,-2.283 5.829,-4.691c0,-2.155 -0.758,-4.059 -1.137,-4.817l-2.917,-7.858l-17.875,-0l-2.662,6.591c-0.759,2.025 -1.271,3.171 -1.271,5.321c-0,2.792 0.637,5.075 6.217,5.454c0.379,0 0.504,0.634 0.504,1.521c-0,0.888 -0.379,1.65 -0.759,1.65c-5.2,0 -7.479,-0.762 -10.904,-0.762c-3.929,-0 -5.829,0.762 -10.012,0.762c-0.384,0 -0.638,-0.762 -0.638,-1.65c0,-0.887 0.638,-1.521 1.017,-1.521c6.212,-0.762 7.604,-4.691 10.521,-11.283l19.396,-44.875c0.129,-0.638 0.633,-0.892 1.52,-0.892c0.763,0 1.396,0.379 1.525,0.892l17.367,44.875c1.775,4.692 3.55,10.271 11.029,11.283c0.379,0 0.888,0.634 0.888,1.521c-0,0.888 -0.379,1.65 -0.763,1.65" style="fill:#fff;fill-rule:nonzero;"/><path d="M595.589,155.117c-5.959,0 -8.113,-0.762 -14.959,-0.762c-6.975,-0 -9,0.762 -14.958,0.762c-0.379,0 -0.762,-0.762 -0.762,-1.65c-0,-0.883 0.383,-1.521 0.762,-1.521c8.621,-1.266 9.254,-3.679 9.254,-9.508l0,-33.342c0,-5.704 -0.633,-8.112 -9.254,-9.379c-0.379,-0.129 -0.762,-0.762 -0.762,-1.521c-0,-0.891 0.383,-1.65 0.762,-1.65c5.958,0 7.983,0.634 14.958,0.634c6.846,-0 9,-0.634 14.959,-0.634c0.379,0 0.633,0.759 0.633,1.65c0,0.759 -0.254,1.392 -0.633,1.521c-8.746,1.267 -9.254,3.675 -9.254,9.379l-0,33.342c-0,5.829 0.508,8.242 9.254,9.508c0.379,0 0.633,0.638 0.633,1.521c0,0.888 -0.254,1.65 -0.633,1.65" style="fill:#fff;fill-rule:nonzero;"/><path d="M678.625,99.716c-8.75,1.266 -9.254,3.675 -9.379,9.379l-1.142,46.529c0,0.758 -0.508,1.142 -1.396,1.142c-0.758,-0 -1.271,-0.384 -1.775,-0.888l-43.483,-46.271l-0.763,32.829c-0.125,5.709 0.638,8.242 9.255,9.513c0.383,-0 0.633,0.633 0.633,1.521c-0,0.887 -0.25,1.521 -0.633,1.521c-4.692,-0 -7.988,-0.634 -12.296,-0.634c-4.309,0 -7.604,0.634 -11.663,0.634c-0.379,-0 -0.762,-0.634 -0.762,-1.521c-0,-1.013 0.383,-1.521 0.762,-1.521c8.746,-1.271 9,-3.804 9.379,-9.513l1.905,-33.341c0.379,-5.704 -1.65,-8.113 -10.271,-9.379c-0.379,-0.125 -0.634,-0.763 -0.634,-1.65c0,-0.884 0.255,-1.517 0.634,-1.517c3.046,-0 4.946,0.633 8.241,0.633c3.805,0 5.45,-0.633 9.509,-0.633l39.679,41.833l-0,-29.287c-0,-5.704 -1.142,-8.113 -9.758,-9.379c-0.384,-0.125 -0.763,-0.634 -0.763,-1.521c0,-0.888 0.379,-1.646 0.763,-1.646c4.687,-0 7.987,0.633 12.295,0.633c4.309,0 7.605,-0.633 11.663,-0.633c0.379,-0 0.762,0.633 0.762,1.646c0,0.887 -0.383,1.396 -0.762,1.521" style="fill:#fff;fill-rule:nonzero;"/><path d="M738.84,115.058c-0.633,-0 -1.013,-0.509 -1.142,-0.763c-3.296,-10.775 -6.337,-13.437 -16.479,-13.437c-3.55,-0 -4.817,0.758 -4.817,4.183l0,37.396c0,5.833 0.634,8.241 9.255,9.512c0.508,0 0.762,0.634 0.762,1.521c0,0.888 -0.254,1.646 -0.762,1.646c-5.834,-0 -7.988,-0.758 -14.834,-0.758c-6.971,-0 -9.129,0.758 -14.958,0.758c-0.383,-0 -0.763,-0.758 -0.763,-1.646c0,-0.887 0.38,-1.521 0.763,-1.521c8.621,-1.271 9.254,-3.679 9.254,-9.512l0,-37.396c0,-3.425 -1.267,-4.183 -4.821,-4.183c-9.254,-0 -15.337,4.691 -18,13.437c-0.125,0.379 -0.504,0.763 -1.141,0.763c-1.142,-0 -2.155,-0.634 -1.775,-1.271c2.412,-6.592 3.425,-11.663 5.07,-18.129c4.184,0.891 5.959,1.52 26.371,1.52c20.284,0 22.567,-0.629 26.75,-1.52c0.759,6.72 1.646,10.779 3.042,18.129c0.254,0.637 -0.379,1.271 -1.775,1.271" style="fill:#fff;fill-rule:nonzero;"/><path d="M777.758,129.763l-32.962,0c-1.013,0 -1.65,-1.396 -1.65,-3.425c-0,-1.9 0.637,-3.55 1.65,-3.55l32.962,0c1.013,0 1.65,1.65 1.65,3.55c0,2.029 -0.637,3.425 -1.65,3.425" style="fill:#fff;fill-rule:nonzero;"/><path d="M824.537,70.431c-12.3,1.521 -13.187,4.183 -13.187,10.775l-0,56.162c-0,24.342 -17.621,47.288 -36.508,47.288c-7.355,-0 -11.538,-3.425 -11.538,-8.242c0,-4.433 3.55,-8.241 9.254,-8.241c7.225,-0 7.354,7.862 13.059,7.862c5.579,0 12.804,-7.479 12.804,-35.117l-0,-59.712c-0,-6.592 -0.763,-9.254 -13.059,-10.775c-0.633,-0 -1.012,-0.763 -1.012,-1.775c-0,-0.888 0.379,-1.775 1.012,-1.775c8.367,-0 11.663,0.762 19.525,0.762c7.859,0 11.284,-0.762 19.65,-0.762c0.509,-0 1.013,0.887 1.013,1.775c-0,1.012 -0.504,1.775 -1.013,1.775" style="fill:#fff;fill-rule:nonzero;"/><path d="M879.429,155.117c-6.721,-0.383 -12.934,-0.762 -20.409,-0.762c-7.358,-0 -21.554,0.379 -27.258,0.762c-0.383,0 -0.633,-0.762 -0.633,-1.65c-0,-0.883 0.25,-1.521 0.633,-1.521c8.746,-1.266 9.383,-3.679 9.383,-9.508l0,-33.342c0,-5.704 -0.637,-8.112 -9.383,-9.379c-0.383,-0.129 -0.633,-0.762 -0.633,-1.521c-0,-0.891 0.25,-1.65 0.633,-1.65c5.704,0.255 18.763,0.634 26.117,0.634c7.479,-0 14.071,-0.379 20.787,-0.634c0.888,5.834 1.775,10.271 3.55,16.1c0.129,0.763 -0.633,1.267 -1.9,1.267c-0.508,0 -1.012,-0.375 -1.012,-0.758c-3.046,-9.888 -9.638,-12.296 -16.359,-12.296l-3.925,-0c-2.92,-0 -6.595,1.137 -6.595,6.592l-0,15.337l6.466,0c5.834,0 9.129,-0.379 10.396,-9c0,-0.379 0.763,-0.762 1.521,-0.762c0.887,-0 1.65,0.383 1.65,0.762c-0,4.438 -0.638,6.846 -0.638,11.033c0,4.18 0.638,6.592 0.638,11.025c-0,0.384 -0.763,0.763 -1.65,0.763c-0.758,-0 -1.521,-0.379 -1.521,-0.763c-1.267,-8.616 -4.562,-9.508 -10.396,-9.508l-6.466,0l-0,17.75c-0,5.575 3.675,6.721 6.595,6.721l4.309,-0c8.491,-0 16.225,-5.838 20.283,-14.329c0.125,-0.25 0.504,-0.375 1.017,-0.375c1.012,-0 2.025,0.883 1.771,1.391c-2.663,5.83 -4.817,10.905 -6.971,17.621" style="fill:#fff;fill-rule:nonzero;"/><path d="M916.194,111.506l-7.733,19.525l15.087,-0l-7.354,-19.525Zm33.721,43.612c-5.958,0 -7.733,-0.762 -12.675,-0.762c-5.579,-0 -8.113,0.762 -14.075,0.762c-0.379,0 -0.633,-0.762 -0.633,-1.65c-0,-0.887 0.129,-1.521 0.508,-1.521c5.45,-0.379 5.829,-2.283 5.829,-4.691c0,-2.155 -0.758,-4.059 -1.137,-4.817l-2.917,-7.858l-17.875,-0l-2.663,6.591c-0.758,2.025 -1.27,3.171 -1.27,5.321c-0,2.792 0.637,5.075 6.216,5.454c0.379,0 0.504,0.634 0.504,1.521c0,0.888 -0.379,1.65 -0.758,1.65c-5.2,0 -7.479,-0.762 -10.904,-0.762c-3.929,-0 -5.829,0.762 -10.013,0.762c-0.383,0 -0.637,-0.762 -0.637,-1.65c-0,-0.887 0.637,-1.521 1.012,-1.521c6.217,-0.762 7.609,-4.691 10.525,-11.283l19.396,-44.875c0.129,-0.638 0.634,-0.892 1.521,-0.892c0.763,0 1.396,0.379 1.525,0.892l17.367,44.875c1.775,4.692 3.55,10.271 11.029,11.283c0.379,0 0.887,0.634 0.887,1.521c0,0.888 -0.379,1.65 -0.762,1.65" style="fill:#fff;fill-rule:nonzero;"/><path d="M1025.09,99.716c-8.75,1.266 -9.254,3.675 -9.384,9.379l-1.137,46.529c-0,0.758 -0.508,1.142 -1.396,1.142c-0.762,-0 -1.267,-0.384 -1.775,-0.888l-43.483,-46.271l-0.763,32.829c-0.125,5.709 0.638,8.242 9.254,9.513c0.384,-0 0.634,0.633 0.634,1.521c-0,0.887 -0.25,1.521 -0.634,1.521c-4.691,-0 -7.987,-0.634 -12.295,-0.634c-4.309,0 -7.605,0.634 -11.663,0.634c-0.379,-0 -0.762,-0.634 -0.762,-1.521c-0,-1.013 0.383,-1.521 0.762,-1.521c8.746,-1.271 9,-3.804 9.379,-9.513l1.904,-33.341c0.38,-5.704 -1.65,-8.113 -10.27,-9.379c-0.38,-0.125 -0.634,-0.763 -0.634,-1.65c0,-0.884 0.254,-1.517 0.634,-1.517c3.045,-0 4.945,0.633 8.241,0.633c3.804,0 5.45,-0.633 9.509,-0.633l39.679,41.833l-0,-29.287c-0,-5.704 -1.142,-8.113 -9.759,-9.379c-0.383,-0.125 -0.762,-0.634 -0.762,-1.521c-0,-0.888 0.379,-1.646 0.762,-1.646c4.688,-0 7.984,0.633 12.296,0.633c4.309,0 7.604,-0.633 11.663,-0.633c0.379,-0 0.762,0.633 0.762,1.646c0,0.887 -0.383,1.396 -0.762,1.521" style="fill:#fff;fill-rule:nonzero;"/><path d="M103.44,297.667l-31.85,-0l-0,71.883c-0,14.9 5.258,23.083 33.604,23.083c24.546,0 43.537,-18.995 43.537,-49.966c0,-27.467 -16.362,-45 -45.291,-45m-7.596,-88.829l-5.846,-0c-13.733,-0 -18.408,6.133 -18.408,15.779l-0,63.7l21.037,-0c30.975,-0 42.371,-13.734 42.371,-42.079c-0,-24.542 -11.396,-37.4 -39.154,-37.4m18.7,193.437c-19.284,0 -35.65,-1.75 -53.767,-1.75c-18.117,0 -30.096,1.75 -49.383,1.75c-1.167,0 -2.334,-1.75 -2.334,-4.087c0,-2.342 1.167,-3.8 2.334,-4.092c28.346,-3.217 30.391,-9.646 30.391,-24.546l0,-137.629c0,-15.196 -2.045,-21.329 -30.391,-24.838c-1.167,0 -2.334,-1.754 -2.334,-4.091c0,-2.046 1.167,-4.092 2.334,-4.092c19.287,0 28.346,1.754 46.462,1.754c18.117,0 29.221,-1.754 48.509,-1.754c36.525,0 61.066,18.992 61.066,47.338c0,20.162 -18.991,39.45 -43.246,45c31.559,6.137 56.688,24.254 56.688,51.429c-0,36.233 -26.588,59.608 -66.329,59.608" style="fill:#fff;fill-rule:nonzero;"/><path d="M229.665,371.596c-0,13.146 5.841,20.746 16.07,20.746c9.35,0 21.621,-5.258 25.421,-13.441l1.171,-39.159c-21.917,4.971 -42.662,13.442 -42.662,31.854m92.337,20.45c-6.721,7.892 -15.779,13.446 -27.175,13.446c-10.812,0 -19.579,-5.846 -22.5,-14.904c-9.646,9.933 -24.254,16.071 -40.908,16.071c-18.413,-0 -29.804,-13.15 -29.804,-28.346c-0,-29.217 52.008,-43.537 71.004,-48.504l0.879,-22.792c0.583,-15.196 -7.892,-23.671 -18.996,-23.671c-10.521,0 -20.454,5.555 -20.75,14.613c-0.287,13.733 -8.179,19.871 -17.529,19.871c-5.846,-0 -10.521,-3.796 -10.521,-10.225c0,-15.488 35.942,-35.942 58.442,-35.942c19.579,0 36.233,11.979 35.358,36.229l-2.046,66.042c-0.291,14.025 5.554,16.362 9.934,16.362c4.091,0 7.891,-2.633 11.395,-5.845c1.463,-1.167 4.384,1.462 4.384,4.966c-0.292,1.171 -0.292,1.754 -1.167,2.629" style="fill:#fff;fill-rule:nonzero;"/><path d="M399.432,288.023c-13.15,0 -20.746,6.429 -29.221,15.779l-0,71.592c-0,13.15 13.733,21.917 28.637,21.917c29.221,-0 40.909,-24.838 40.909,-57.567c-0,-32.433 -14.613,-51.721 -40.325,-51.721m0.583,118.638c-12.854,-0 -22.204,-2.63 -29.804,-6.725l-0,45.004c-0,18.7 2.921,22.791 19.871,24.837c1.17,0 2.337,1.75 2.337,4.092c0,2.046 -1.167,4.087 -2.337,4.087c-12.271,0 -18.996,-1.754 -32.73,-1.754c-14.025,0 -20.745,1.754 -33.016,1.754c-1.171,0 -2.338,-2.041 -2.338,-4.087c0,-2.342 1.167,-4.092 2.338,-4.092c16.946,-2.046 19.871,-6.137 19.871,-24.837l-0,-129.446c-0,-15.492 -2.338,-18.704 -16.367,-20.163c-1.167,0 -2.338,-1.754 -2.338,-3.8c0,-2.045 1.171,-3.508 2.338,-3.508c13.733,-3.508 25.717,-7.892 35.358,-15.192c1.167,-0.587 2.046,-2.341 4.092,-2.341c2.337,-0 4.092,1.171 4.092,2.341l-1.171,18.405c10.812,-11.105 26.591,-19.575 36.525,-19.575c41.787,-0 62.533,30.975 62.533,68.375c0,37.112 -27.467,66.625 -69.254,66.625" style="fill:#fff;fill-rule:nonzero;"/><path d="M577.964,293.866l-43.542,-1.166l0,70.129c0,18.408 5.846,27.471 19.579,27.471c9.35,-0 15.196,-1.754 21.621,-5.554c1.467,-0.875 3.508,2.045 3.508,4.675c0,1.166 -0.583,2.337 -1.458,3.212c-9.058,7.596 -18.996,12.858 -33.9,12.858c-23.667,0 -36.817,-16.366 -36.525,-38.279l0.588,-71.004c-0,-2.05 -1.171,-4.092 -3.509,-4.092l-11.104,0c-2.046,0 -3.212,-2.045 -3.212,-3.8c-0,-1.754 1.458,-3.8 2.629,-4.383c13.733,-8.183 26.296,-20.746 35.358,-33.896c0.583,-0.875 1.75,-2.337 4.088,-2.337c2.045,-0 4.091,1.166 4.091,2.337l-1.166,28.054l42.954,0c2.337,0 3.8,3.505 3.8,7.888c-0,4.675 -1.463,7.887 -3.8,7.887" style="fill:#fff;fill-rule:nonzero;"/><path d="M630.845,236.595c-8.475,-0 -15.192,-7.013 -15.192,-15.192c-0,-8.479 6.717,-15.196 15.192,-15.196c8.475,0 15.191,6.717 15.191,15.196c0,8.179 -6.716,15.192 -15.191,15.192m33.312,165.683c-12.275,0 -18.992,-1.754 -33.021,-1.754c-14.025,-0 -20.454,1.754 -32.725,1.754c-1.462,0 -2.337,-1.754 -2.337,-4.092c-0,-2.337 0.875,-3.8 2.337,-4.091c16.946,-2.046 19.575,-5.846 19.575,-24.546l0,-54.054c0,-15.492 -2.333,-18.704 -16.071,-20.163c-1.458,0 -2.337,-1.754 -2.337,-3.8c-0,-2.05 0.879,-3.508 2.337,-3.508c13.738,-3.508 26.884,-7.892 36.525,-15.196c1.171,-0.583 1.755,-2.337 4.092,-2.337c2.338,-0 4.092,1.17 4.092,2.337c-0.875,12.275 -2.338,35.65 -2.338,50.842l0,45.879c0,18.7 2.629,22.5 19.871,24.546c1.167,0.291 2.338,1.754 2.338,4.091c-0,2.338 -1.171,4.092 -2.338,4.092" style="fill:#fff;fill-rule:nonzero;"/><path d="M879.51,294.159l-43.538,-1.166l0,69.833c0,18.408 5.55,27.471 19.58,27.471c9.35,-0 15.191,-1.754 21.62,-5.554c1.167,-0.875 3.213,2.045 3.213,4.675c-0,1.17 -0.292,2.629 -1.458,3.216c-8.767,7.888 -18.7,12.859 -33.896,12.859c-23.671,-0 -36.821,-16.367 -36.529,-38.284l0.587,-70.708c0,-2.342 -1.171,-4.096 -3.508,-4.096l-11.104,0c-1.755,0 -2.921,-2.333 -2.921,-4.087c-0,-1.755 1.166,-3.509 2.629,-4.384c13.733,-7.891 18.117,-13.733 18.117,-24.254c-0,-31.85 -12.855,-56.687 -43.83,-56.687c-26.008,-0 -43.541,18.408 -43.541,42.37c-0,16.071 6.137,25.421 23.087,29.8c4.675,1.175 10.225,2.05 13.15,2.05c0.288,9.934 0.875,19.288 1.754,27.759c0.288,1.458 -2.05,2.337 -4.091,2.337c-2.05,0 -3.8,-0.583 -4.092,-2.337c-2.046,-13.734 -11.104,-23.671 -23.379,-23.671c-15.779,-0 -22.792,7.017 -22.792,19.875c0,27.171 64.288,28.342 64.288,63.404c-0,24.546 -22.209,42.079 -47.925,42.079c-12.854,0 -27.759,-5.262 -36.525,-5.262c-1.167,-9.929 -3.796,-23.375 -5.259,-30.971c-0.291,-1.171 1.755,-2.338 4.092,-2.338c2.046,0 3.8,0.875 4.088,2.338c4.387,13.733 19.287,26.883 33.9,26.883c14.9,0 22.791,-8.766 22.791,-22.791c0,-28.638 -62.825,-22.5 -62.825,-65.167c0,-19.279 17.534,-34.475 38.571,-37.108c-4.383,-4.963 -9.35,-15.192 -9.35,-25.13c0,-35.354 28.342,-57.27 62.238,-57.27c35.066,-0 59.612,26.883 59.612,63.7l0,24.55l43.246,-0c2.337,-0 3.8,3.795 3.8,7.887c-0,4.671 -1.463,8.179 -3.8,8.179" style="fill:#fff;fill-rule:nonzero;"/><path d="M962.78,281.012c-16.363,0 -27.175,15.779 -30.683,34.188l40.616,-1.167c14.613,-0.296 16.95,-2.925 16.95,-7.6c0,-14.029 -10.225,-25.421 -26.883,-25.421m48.217,42.371l-80.067,0c-0.583,5.258 -0.875,10.813 -0.875,16.363c-0,32.725 16.946,48.8 42.954,48.8c15.483,-0 30.388,-9.646 37.988,-19.584c0.875,-1.458 4.383,0.879 4.383,4.971c-0,0.875 -0.296,1.458 -0.879,2.338c-9.354,13.733 -26.884,30.387 -51.721,30.387c-35.358,0 -62.242,-29.512 -62.242,-66.621c0,-35.354 23.671,-68.375 62.242,-68.375c35.067,0 53.471,28.342 53.471,47.629c-0,2.625 -2.042,4.092 -5.254,4.092" style="fill:#fff;fill-rule:nonzero;"/><rect x="32.84" y="5.155" width="979.329" height="6.337" style="fill:#fff;"/><rect x="406.824" y="447.813" width="605.346" height="6.338" style="fill:#fff;"/><rect x="32.84" y="447.813" width="269.396" height="6.338" style="fill:#fff;"/></svg>