<svg width="100%" height="100%" viewBox="0 0 248 116" version="1.1" xmlns="http://www.w3.org/2000/svg" xmlns:xlink="http://www.w3.org/1999/xlink" xml:space="preserve" xmlns:serif="http://www.serif.com/" style="fill-rule:evenodd;clip-rule:evenodd;stroke-linejoin:round;stroke-miterlimit:2;">
    <g id="Artboard1" transform="matrix(0.935056,0,0,0.815789,-61.8736,-183.174)">
        <rect x="66.171" y="224.535" width="264.684" height="141.264" style="fill:none;"/>
        <g transform="matrix(1.06945,0,0,1.22581,88.4633,267.745)">
            <path d="M0,-24.371L-5.325,-21.085C-5.416,-21.024 -5.507,-20.994 -5.598,-20.994C-5.72,-20.994 -5.842,-21.115 -5.963,-21.237C-6.055,-21.359 -6.116,-21.48 -6.116,-21.602C-6.116,-21.693 -6.055,-21.785 -5.933,-21.876L-1.399,-26.197C-1.308,-26.288 -1.156,-26.349 -1.004,-26.349C-0.669,-26.349 -0.304,-26.166 -0.03,-25.801C0.152,-25.527 0.274,-25.192 0.274,-24.949C0.274,-24.705 0.183,-24.493 0,-24.371M3.134,1.978C1.217,1.918 -3.012,1.796 -5.051,1.796C-7.059,1.796 -11.288,1.918 -13.205,1.978C-13.357,1.978 -13.448,1.796 -13.448,1.552C-13.448,1.309 -13.357,1.157 -13.205,1.127C-10.253,0.792 -10.071,0.122 -10.071,-1.43L-10.071,-15.76C-10.071,-17.343 -10.253,-17.981 -13.205,-18.347C-13.357,-18.347 -13.448,-18.529 -13.448,-18.772C-13.448,-18.985 -13.357,-19.199 -13.205,-19.199C-11.288,-19.107 -7.363,-19.016 -5.355,-19.016C-3.316,-19.016 0.608,-19.107 2.525,-19.199C2.769,-17.525 3.042,-16.247 3.529,-14.604C3.59,-14.391 3.347,-14.239 3.012,-14.239C2.83,-14.239 2.708,-14.361 2.678,-14.452C1.795,-17.282 -0.213,-18.042 -2.13,-18.042L-5.203,-18.042C-5.994,-18.042 -6.967,-17.707 -6.967,-16.217L-6.967,-9.432L-3.134,-9.432C-1.552,-9.432 -0.669,-9.675 -0.304,-12.626C-0.304,-12.779 -0.122,-12.87 0.122,-12.87C0.335,-12.87 0.548,-12.779 0.548,-12.626C0.548,-11.105 0.365,-10.314 0.365,-8.884C0.365,-7.454 0.548,-6.632 0.548,-5.111C0.548,-4.99 0.335,-4.868 0.122,-4.868C-0.122,-4.868 -0.304,-4.99 -0.304,-5.111C-0.669,-8.063 -1.552,-8.458 -3.134,-8.458L-6.967,-8.458L-6.967,-0.973C-6.967,0.517 -5.994,0.822 -5.203,0.822L-1.886,0.822C0.517,0.822 3.195,-0.913 4.321,-3.316C4.381,-3.408 4.473,-3.438 4.594,-3.438C4.929,-3.438 5.203,-3.195 5.142,-3.042C4.351,-1.369 3.743,0.091 3.134,1.978" style="fill:rgb(35,31,32);fill-rule:nonzero;"/>
        </g>
        <g transform="matrix(1.06945,0,0,1.22581,112.574,259.875)">
            <path d="M0,2.739C-2.069,3.043 -2.221,3.621 -2.221,5.021L-2.221,5.66C-2.221,6.573 -2.1,6.846 -1.947,7.242C-4.077,8.093 -5.933,8.854 -8.215,8.854C-13.722,8.854 -16.46,5.234 -16.46,1.461C-16.46,-2.586 -13.205,-6.115 -8.033,-6.115C-5.872,-6.115 -4.412,-5.294 -2.738,-5.294C-2.677,-4.076 -2.556,-2.951 -2.343,-1.643C-2.313,-1.521 -2.525,-1.46 -2.738,-1.46C-2.951,-1.46 -3.042,-1.521 -3.073,-1.643C-3.651,-3.772 -5.264,-5.263 -8.124,-5.263C-11.531,-5.263 -13.509,-2.373 -13.509,1.461C-13.509,5.142 -11.531,7.972 -8.215,7.972C-5.872,7.972 -4.959,7.547 -4.959,5.782L-4.959,4.412C-4.959,3.195 -6.055,3.074 -8.246,2.8C-8.337,2.769 -8.428,2.617 -8.428,2.404C-8.428,2.161 -8.337,2.009 -8.246,2.009C-6.815,2.009 -5.568,2.161 -3.895,2.161C-2.251,2.161 -1.399,2.009 0,2.009C0.091,2.009 0.183,2.161 0.183,2.374C0.183,2.587 0.091,2.739 0,2.739" style="fill:rgb(35,31,32);fill-rule:nonzero;"/>
        </g>
        <g transform="matrix(1.06945,0,0,1.22581,127.086,252.939)">
            <path d="M0,14.057C-1.673,13.965 -4.625,13.874 -6.39,13.874C-8.185,13.874 -10.771,13.965 -12.14,14.057C-12.231,14.057 -12.292,13.874 -12.292,13.661C-12.292,13.449 -12.231,13.296 -12.14,13.296C-10.041,12.992 -9.889,12.413 -9.889,11.014L-9.889,3.012C-9.889,1.643 -10.041,1.065 -12.14,0.761C-12.231,0.73 -12.292,0.578 -12.292,0.396C-12.292,0.182 -12.231,0 -12.14,0C-10.71,0 -10.193,0.152 -8.55,0.152C-6.876,0.152 -6.359,0 -4.959,0C-4.868,0 -4.777,0.182 -4.777,0.396C-4.777,0.578 -4.868,0.73 -4.959,0.761C-7.028,1.065 -7.181,1.643 -7.181,3.012L-7.181,11.41C-7.181,12.748 -6.298,13.023 -5.598,13.023L-4.777,13.023C-1.947,13.023 -0.821,11.197 0.304,8.854C0.335,8.793 0.426,8.733 0.548,8.733C0.821,8.733 1.035,8.946 1.004,9.097C0.548,10.863 0.274,12.079 0,14.057" style="fill:rgb(35,31,32);fill-rule:nonzero;"/>
        </g>
        <g transform="matrix(1.06945,0,0,1.22581,137.759,252.939)">
            <path d="M0,14.057C-1.43,14.057 -1.947,13.874 -3.59,13.874C-5.264,13.874 -5.75,14.057 -7.181,14.057C-7.271,14.057 -7.363,13.874 -7.363,13.661C-7.363,13.449 -7.271,13.296 -7.181,13.296C-5.111,12.992 -4.959,12.413 -4.959,11.014L-4.959,3.012C-4.959,1.643 -5.111,1.065 -7.181,0.761C-7.271,0.73 -7.363,0.578 -7.363,0.396C-7.363,0.182 -7.271,0 -7.181,0C-5.75,0 -5.264,0.152 -3.59,0.152C-1.947,0.152 -1.43,0 0,0C0.091,0 0.152,0.182 0.152,0.396C0.152,0.578 0.091,0.73 0,0.761C-2.099,1.065 -2.221,1.643 -2.221,3.012L-2.221,11.014C-2.221,12.413 -2.099,12.992 0,13.296C0.091,13.296 0.152,13.449 0.152,13.661C0.152,13.874 0.091,14.057 0,14.057" style="fill:rgb(35,31,32);fill-rule:nonzero;"/>
        </g>
        <g transform="matrix(1.06945,0,0,1.22581,146.609,252.38)">
            <path d="M0,14.969C-1.826,14.969 -2.495,14.391 -4.381,14.391C-4.473,13.174 -4.594,11.622 -4.716,10.558C-4.716,10.436 -4.533,10.375 -4.32,10.375C-4.138,10.375 -4.046,10.406 -4.016,10.558C-3.104,13.357 -2.099,14.057 0.091,14.057C1.856,14.057 2.586,13.114 2.586,11.562C2.586,8.245 -4.351,8.245 -4.351,4.137C-4.351,2.069 -2.495,0 0.365,0C1.826,0 2.191,0.304 3.773,0.304C3.895,1.703 3.986,2.738 4.199,4.077C4.229,4.168 4.047,4.26 3.864,4.26C3.651,4.26 3.529,4.198 3.499,4.077C2.891,1.612 1.917,0.852 0.335,0.852C-1.217,0.852 -1.947,1.643 -1.947,3.042C-1.947,5.75 4.959,6.298 4.959,10.283C4.959,12.839 3.225,14.969 0,14.969" style="fill:rgb(35,31,32);fill-rule:nonzero;"/>
        </g>
        <g transform="matrix(1.06945,0,0,1.22581,166.946,252.939)">
            <path d="M0,14.057C-1.613,13.965 -3.104,13.874 -4.898,13.874C-6.664,13.874 -10.071,13.965 -11.44,14.057C-11.532,14.057 -11.592,13.874 -11.592,13.661C-11.592,13.449 -11.532,13.296 -11.44,13.296C-9.341,12.992 -9.189,12.413 -9.189,11.014L-9.189,3.012C-9.189,1.643 -9.341,1.065 -11.44,0.761C-11.532,0.73 -11.592,0.578 -11.592,0.396C-11.592,0.182 -11.532,0 -11.44,0C-10.071,0.061 -6.937,0.152 -5.172,0.152C-3.377,0.152 -1.795,0.061 -0.183,0C0.03,1.4 0.243,2.465 0.669,3.864C0.7,4.047 0.517,4.168 0.213,4.168C0.091,4.168 -0.03,4.078 -0.03,3.986C-0.761,1.613 -2.343,1.035 -3.956,1.035L-4.898,1.035C-5.599,1.035 -6.481,1.308 -6.481,2.617L-6.481,6.298L-4.929,6.298C-3.529,6.298 -2.738,6.207 -2.434,4.138C-2.434,4.047 -2.251,3.955 -2.069,3.955C-1.856,3.955 -1.673,4.047 -1.673,4.138C-1.673,5.203 -1.826,5.781 -1.826,6.786C-1.826,7.789 -1.673,8.368 -1.673,9.432C-1.673,9.524 -1.856,9.615 -2.069,9.615C-2.251,9.615 -2.434,9.524 -2.434,9.432C-2.738,7.364 -3.529,7.15 -4.929,7.15L-6.481,7.15L-6.481,11.41C-6.481,12.748 -5.599,13.023 -4.898,13.023L-3.864,13.023C-1.826,13.023 0.03,11.622 1.004,9.584C1.035,9.524 1.125,9.494 1.248,9.494C1.491,9.494 1.734,9.706 1.673,9.828C1.035,11.227 0.517,12.445 0,14.057" style="fill:rgb(35,31,32);fill-rule:nonzero;"/>
        </g>
        <g transform="matrix(1.06945,0,0,1.22581,185.33,243.652)">
            <path d="M0,22.119C-2.617,22.119 -3.773,21.177 -6.055,21.177C-6.116,19.533 -6.268,17.465 -6.42,16.004C-6.42,15.851 -6.207,15.761 -5.963,15.761C-5.75,15.761 -5.629,15.821 -5.568,16.004C-4.473,19.776 -2.952,21.145 0.122,21.145C2.738,21.145 3.986,19.503 3.986,17.099C3.986,12.2 -5.994,11.805 -5.994,5.902C-5.994,2.86 -3.53,0 0.487,0C2.586,0 3.255,0.547 5.172,0.547C5.294,2.282 5.416,3.59 5.659,5.264C5.689,5.385 5.477,5.507 5.264,5.507C5.02,5.507 4.837,5.446 4.807,5.264C4.107,2.16 2.799,0.973 0.456,0.973C-1.856,0.973 -3.256,2.464 -3.256,4.685C-3.256,9.067 6.663,9.919 6.663,15.517C6.663,19.533 4.107,22.119 0,22.119" style="fill:rgb(35,31,32);fill-rule:nonzero;"/>
        </g>
        <g transform="matrix(1.06945,0,0,1.22581,200.526,265.284)">
            <path d="M0,-6.481L-1.856,-1.795L1.765,-1.795L0,-6.481ZM8.093,3.986C6.663,3.986 6.237,3.803 5.051,3.803C3.712,3.803 3.104,3.986 1.673,3.986C1.582,3.986 1.521,3.803 1.521,3.59C1.521,3.377 1.552,3.225 1.643,3.225C2.951,3.134 3.042,2.677 3.042,2.099C3.042,1.582 2.86,1.125 2.769,0.943L2.069,-0.943L-2.221,-0.943L-2.86,0.639C-3.042,1.125 -3.165,1.4 -3.165,1.916C-3.165,2.586 -3.012,3.134 -1.673,3.225C-1.582,3.225 -1.552,3.377 -1.552,3.59C-1.552,3.803 -1.643,3.986 -1.734,3.986C-2.982,3.986 -3.529,3.803 -4.351,3.803C-5.294,3.803 -5.75,3.986 -6.754,3.986C-6.846,3.986 -6.907,3.803 -6.907,3.59C-6.907,3.377 -6.754,3.225 -6.663,3.225C-5.172,3.042 -4.838,2.099 -4.138,0.517L0.517,-10.253C0.548,-10.406 0.669,-10.467 0.882,-10.467C1.065,-10.467 1.217,-10.376 1.248,-10.253L5.416,0.517C5.842,1.643 6.268,2.982 8.063,3.225C8.154,3.225 8.276,3.377 8.276,3.59C8.276,3.803 8.185,3.986 8.093,3.986" style="fill:rgb(35,31,32);fill-rule:nonzero;"/>
        </g>
        <g transform="matrix(1.06945,0,0,1.22581,219.04,252.939)">
            <path d="M0,14.057C-1.43,14.057 -1.947,13.874 -3.59,13.874C-5.264,13.874 -5.75,14.057 -7.18,14.057C-7.271,14.057 -7.363,13.874 -7.363,13.661C-7.363,13.449 -7.271,13.296 -7.18,13.296C-5.111,12.992 -4.959,12.413 -4.959,11.014L-4.959,3.012C-4.959,1.643 -5.111,1.065 -7.18,0.761C-7.271,0.73 -7.363,0.578 -7.363,0.396C-7.363,0.182 -7.271,0 -7.18,0C-5.75,0 -5.264,0.152 -3.59,0.152C-1.947,0.152 -1.43,0 0,0C0.091,0 0.152,0.182 0.152,0.396C0.152,0.578 0.091,0.73 0,0.761C-2.099,1.065 -2.221,1.643 -2.221,3.012L-2.221,11.014C-2.221,12.413 -2.099,12.992 0,13.296C0.091,13.296 0.152,13.449 0.152,13.661C0.152,13.874 0.091,14.057 0,14.057" style="fill:rgb(35,31,32);fill-rule:nonzero;"/>
        </g>
        <g transform="matrix(1.06945,0,0,1.22581,240.353,269.723)">
            <path d="M0,-12.932C-2.1,-12.628 -2.221,-12.05 -2.251,-10.681L-2.525,0.486C-2.525,0.668 -2.647,0.76 -2.86,0.76C-3.042,0.76 -3.165,0.668 -3.286,0.547L-13.722,-10.558L-13.905,-2.679C-13.935,-1.309 -13.752,-0.701 -11.684,-0.396C-11.592,-0.396 -11.532,-0.244 -11.532,-0.031C-11.532,0.182 -11.592,0.334 -11.684,0.334C-12.81,0.334 -13.601,0.182 -14.635,0.182C-15.669,0.182 -16.46,0.334 -17.434,0.334C-17.525,0.334 -17.617,0.182 -17.617,-0.031C-17.617,-0.274 -17.525,-0.396 -17.434,-0.396C-15.335,-0.701 -15.274,-1.309 -15.183,-2.679L-14.726,-10.681C-14.635,-12.05 -15.122,-12.628 -17.191,-12.932C-17.282,-12.962 -17.343,-13.115 -17.343,-13.328C-17.343,-13.54 -17.282,-13.692 -17.191,-13.692C-16.46,-13.692 -16.004,-13.54 -15.213,-13.54C-14.3,-13.54 -13.905,-13.692 -12.931,-13.692L-3.408,-3.652L-3.408,-10.681C-3.408,-12.05 -3.682,-12.628 -5.75,-12.932C-5.842,-12.962 -5.933,-13.084 -5.933,-13.297C-5.933,-13.51 -5.842,-13.692 -5.75,-13.692C-4.625,-13.692 -3.833,-13.54 -2.799,-13.54C-1.765,-13.54 -0.974,-13.692 0,-13.692C0.091,-13.692 0.183,-13.54 0.183,-13.297C0.183,-13.084 0.091,-12.962 0,-12.932" style="fill:rgb(35,31,32);fill-rule:nonzero;"/>
        </g>
        <g transform="matrix(1.06945,0,0,1.22581,255.808,264.462)">
            <path d="M0,-4.958C-0.152,-4.958 -0.243,-5.08 -0.274,-5.141C-1.065,-7.727 -1.795,-8.366 -4.229,-8.366C-5.081,-8.366 -5.385,-8.184 -5.385,-7.362L-5.385,1.613C-5.385,3.013 -5.233,3.591 -3.164,3.896C-3.042,3.896 -2.981,4.048 -2.981,4.261C-2.981,4.474 -3.042,4.656 -3.164,4.656C-4.564,4.656 -5.081,4.474 -6.724,4.474C-8.397,4.474 -8.915,4.656 -10.314,4.656C-10.406,4.656 -10.497,4.474 -10.497,4.261C-10.497,4.048 -10.406,3.896 -10.314,3.896C-8.245,3.591 -8.093,3.013 -8.093,1.613L-8.093,-7.362C-8.093,-8.184 -8.397,-8.366 -9.25,-8.366C-11.471,-8.366 -12.931,-7.24 -13.57,-5.141C-13.6,-5.05 -13.691,-4.958 -13.844,-4.958C-14.118,-4.958 -14.361,-5.11 -14.27,-5.263C-13.691,-6.845 -13.448,-8.062 -13.053,-9.614C-12.049,-9.4 -11.623,-9.249 -6.724,-9.249C-1.856,-9.249 -1.308,-9.4 -0.304,-9.614C-0.122,-8.001 0.091,-7.027 0.426,-5.263C0.487,-5.11 0.335,-4.958 0,-4.958" style="fill:rgb(35,31,32);fill-rule:nonzero;"/>
        </g>
        <g transform="matrix(1.06945,0,0,1.22581,265.798,260.659)">
            <path d="M0,1.674L-7.911,1.674C-8.154,1.674 -8.307,1.339 -8.307,0.852C-8.307,0.396 -8.154,0 -7.911,0L0,0C0.243,0 0.396,0.396 0.396,0.852C0.396,1.339 0.243,1.674 0,1.674" style="fill:rgb(35,31,32);fill-rule:nonzero;"/>
        </g>
        <g transform="matrix(1.06945,0,0,1.22581,277.804,277.816)">
            <path d="M0,-26.562C-2.952,-26.197 -3.165,-25.558 -3.165,-23.976L-3.165,-10.497C-3.165,-4.655 -7.394,0.852 -11.927,0.852C-13.692,0.852 -14.696,0.03 -14.696,-1.126C-14.696,-2.19 -13.844,-3.104 -12.475,-3.104C-10.741,-3.104 -10.71,-1.217 -9.341,-1.217C-8.002,-1.217 -6.268,-3.012 -6.268,-9.645L-6.268,-23.976C-6.268,-25.558 -6.451,-26.197 -9.402,-26.562C-9.554,-26.562 -9.645,-26.745 -9.645,-26.988C-9.645,-27.201 -9.554,-27.414 -9.402,-27.414C-7.394,-27.414 -6.603,-27.231 -4.716,-27.231C-2.83,-27.231 -2.008,-27.414 0,-27.414C0.122,-27.414 0.243,-27.201 0.243,-26.988C0.243,-26.745 0.122,-26.562 0,-26.562" style="fill:rgb(35,31,32);fill-rule:nonzero;"/>
        </g>
        <g transform="matrix(1.06945,0,0,1.22581,291.893,252.939)">
            <path d="M0,14.057C-1.613,13.965 -3.104,13.874 -4.898,13.874C-6.664,13.874 -10.071,13.965 -11.44,14.057C-11.532,14.057 -11.592,13.874 -11.592,13.661C-11.592,13.449 -11.532,13.296 -11.44,13.296C-9.341,12.992 -9.188,12.413 -9.188,11.014L-9.188,3.012C-9.188,1.643 -9.341,1.065 -11.44,0.761C-11.532,0.73 -11.592,0.578 -11.592,0.396C-11.592,0.182 -11.532,0 -11.44,0C-10.071,0.061 -6.937,0.152 -5.172,0.152C-3.377,0.152 -1.795,0.061 -0.183,0C0.03,1.4 0.243,2.465 0.669,3.864C0.7,4.047 0.517,4.168 0.213,4.168C0.091,4.168 -0.03,4.078 -0.03,3.986C-0.761,1.613 -2.343,1.035 -3.956,1.035L-4.898,1.035C-5.599,1.035 -6.481,1.308 -6.481,2.617L-6.481,6.298L-4.929,6.298C-3.529,6.298 -2.738,6.207 -2.434,4.138C-2.434,4.047 -2.251,3.955 -2.069,3.955C-1.856,3.955 -1.673,4.047 -1.673,4.138C-1.673,5.203 -1.826,5.781 -1.826,6.786C-1.826,7.789 -1.673,8.368 -1.673,9.432C-1.673,9.524 -1.856,9.615 -2.069,9.615C-2.251,9.615 -2.434,9.524 -2.434,9.432C-2.738,7.364 -3.529,7.15 -4.929,7.15L-6.481,7.15L-6.481,11.41C-6.481,12.748 -5.599,13.023 -4.898,13.023L-3.864,13.023C-1.826,13.023 0.03,11.622 1.004,9.584C1.034,9.524 1.125,9.494 1.248,9.494C1.491,9.494 1.734,9.706 1.673,9.828C1.034,11.227 0.517,12.445 0,14.057" style="fill:rgb(35,31,32);fill-rule:nonzero;"/>
        </g>
        <g transform="matrix(1.06945,0,0,1.22581,301.33,265.284)">
            <path d="M0,-6.481L-1.856,-1.795L1.765,-1.795L0,-6.481ZM8.093,3.986C6.663,3.986 6.237,3.803 5.051,3.803C3.712,3.803 3.104,3.986 1.673,3.986C1.582,3.986 1.521,3.803 1.521,3.59C1.521,3.377 1.552,3.225 1.643,3.225C2.951,3.134 3.042,2.677 3.042,2.099C3.042,1.582 2.86,1.125 2.769,0.943L2.069,-0.943L-2.221,-0.943L-2.86,0.639C-3.042,1.125 -3.165,1.4 -3.165,1.916C-3.165,2.586 -3.012,3.134 -1.673,3.225C-1.582,3.225 -1.552,3.377 -1.552,3.59C-1.552,3.803 -1.643,3.986 -1.734,3.986C-2.982,3.986 -3.529,3.803 -4.351,3.803C-5.294,3.803 -5.75,3.986 -6.754,3.986C-6.846,3.986 -6.907,3.803 -6.907,3.59C-6.907,3.377 -6.754,3.225 -6.664,3.225C-5.172,3.042 -4.838,2.099 -4.138,0.517L0.517,-10.253C0.548,-10.406 0.669,-10.467 0.882,-10.467C1.065,-10.467 1.217,-10.376 1.248,-10.253L5.416,0.517C5.842,1.643 6.268,2.982 8.063,3.225C8.154,3.225 8.276,3.377 8.276,3.59C8.276,3.803 8.185,3.986 8.093,3.986" style="fill:rgb(35,31,32);fill-rule:nonzero;"/>
        </g>
        <g transform="matrix(1.06945,0,0,1.22581,329.28,269.723)">
            <path d="M0,-12.932C-2.1,-12.628 -2.221,-12.05 -2.252,-10.681L-2.525,0.486C-2.525,0.668 -2.647,0.76 -2.86,0.76C-3.043,0.76 -3.164,0.668 -3.286,0.547L-13.722,-10.558L-13.905,-2.679C-13.935,-1.309 -13.752,-0.701 -11.684,-0.396C-11.592,-0.396 -11.532,-0.244 -11.532,-0.031C-11.532,0.182 -11.592,0.334 -11.684,0.334C-12.81,0.334 -13.601,0.182 -14.635,0.182C-15.669,0.182 -16.46,0.334 -17.434,0.334C-17.525,0.334 -17.617,0.182 -17.617,-0.031C-17.617,-0.274 -17.525,-0.396 -17.434,-0.396C-15.335,-0.701 -15.274,-1.309 -15.183,-2.679L-14.726,-10.681C-14.635,-12.05 -15.122,-12.628 -17.191,-12.932C-17.282,-12.962 -17.343,-13.115 -17.343,-13.328C-17.343,-13.54 -17.282,-13.692 -17.191,-13.692C-16.46,-13.692 -16.004,-13.54 -15.213,-13.54C-14.3,-13.54 -13.905,-13.692 -12.931,-13.692L-3.408,-3.652L-3.408,-10.681C-3.408,-12.05 -3.682,-12.628 -5.75,-12.932C-5.842,-12.962 -5.933,-13.084 -5.933,-13.297C-5.933,-13.51 -5.842,-13.692 -5.75,-13.692C-4.625,-13.692 -3.834,-13.54 -2.799,-13.54C-1.765,-13.54 -0.974,-13.692 0,-13.692C0.091,-13.692 0.183,-13.54 0.183,-13.297C0.183,-13.084 0.091,-12.962 0,-12.932" style="fill:rgb(35,31,32);fill-rule:nonzero;"/>
        </g>
        <g transform="matrix(1.06945,0,0,1.22581,92.7207,313.826)">
            <path d="M0,-1.402L-7.644,-1.402L-7.644,15.85C-7.644,19.426 -6.382,21.39 0.421,21.39C6.312,21.39 10.87,16.831 10.87,9.398C10.87,2.806 6.943,-1.402 0,-1.402M-1.823,-22.721L-3.226,-22.721C-6.522,-22.721 -7.644,-21.249 -7.644,-18.934L-7.644,-3.646L-2.595,-3.646C4.839,-3.646 7.574,-6.942 7.574,-13.745C7.574,-19.635 4.839,-22.721 -1.823,-22.721M2.665,23.704C-1.963,23.704 -5.891,23.284 -10.239,23.284C-14.587,23.284 -17.462,23.704 -22.091,23.704C-22.371,23.704 -22.651,23.284 -22.651,22.723C-22.651,22.161 -22.371,21.811 -22.091,21.741C-15.288,20.969 -14.797,19.426 -14.797,15.85L-14.797,-17.181C-14.797,-20.828 -15.288,-22.3 -22.091,-23.142C-22.371,-23.142 -22.651,-23.563 -22.651,-24.124C-22.651,-24.615 -22.371,-25.106 -22.091,-25.106C-17.462,-25.106 -15.288,-24.685 -10.94,-24.685C-6.592,-24.685 -3.927,-25.106 0.702,-25.106C9.468,-25.106 15.358,-20.548 15.358,-13.745C15.358,-8.906 10.8,-4.277 4.979,-2.945C12.553,-1.472 18.584,2.876 18.584,9.398C18.584,18.094 12.203,23.704 2.665,23.704" style="fill:rgb(35,31,32);fill-rule:nonzero;"/>
        </g>
        <g transform="matrix(1.06945,0,0,1.22581,125.119,314.772)">
            <path d="M0,15.569C0,18.724 1.402,20.548 3.857,20.548C6.101,20.548 9.046,19.286 9.958,17.322L10.239,7.924C4.979,9.117 0,11.15 0,15.569M22.161,20.477C20.548,22.371 18.374,23.704 15.639,23.704C13.044,23.704 10.94,22.301 10.239,20.127C7.924,22.511 4.418,23.984 0.421,23.984C-3.998,23.984 -6.732,20.828 -6.732,17.181C-6.732,10.169 5.75,6.732 10.309,5.54L10.52,0.07C10.66,-3.577 8.626,-5.611 5.961,-5.611C3.436,-5.611 1.052,-4.278 0.981,-2.104C0.912,1.192 -0.982,2.665 -3.226,2.665C-4.629,2.665 -5.751,1.754 -5.751,0.211C-5.751,-3.506 2.875,-8.415 8.275,-8.415C12.974,-8.415 16.971,-5.54 16.761,0.28L16.27,16.13C16.2,19.496 17.603,20.057 18.654,20.057C19.636,20.057 20.548,19.425 21.389,18.654C21.74,18.374 22.441,19.005 22.441,19.846C22.371,20.127 22.371,20.267 22.161,20.477" style="fill:rgb(35,31,32);fill-rule:nonzero;"/>
        </g>
        <g transform="matrix(1.06945,0,0,1.22581,168.693,359.989)">
            <path d="M0,-41.376C-3.156,-41.376 -4.979,-39.833 -7.013,-37.589L-7.013,-20.407C-7.013,-17.251 -3.717,-15.147 -0.14,-15.147C6.873,-15.147 9.678,-21.108 9.678,-28.963C9.678,-36.747 6.171,-41.376 0,-41.376M0.14,-12.903C-2.945,-12.903 -5.189,-13.534 -7.013,-14.517L-7.013,-3.716C-7.013,0.772 -6.312,1.754 -2.244,2.245C-1.963,2.245 -1.683,2.665 -1.683,3.227C-1.683,3.718 -1.963,4.208 -2.244,4.208C-5.189,4.208 -6.803,3.787 -10.099,3.787C-13.465,3.787 -15.078,4.208 -18.023,4.208C-18.304,4.208 -18.584,3.718 -18.584,3.227C-18.584,2.665 -18.304,2.245 -18.023,2.245C-13.956,1.754 -13.254,0.772 -13.254,-3.716L-13.254,-34.783C-13.254,-38.501 -13.815,-39.272 -17.182,-39.622C-17.462,-39.622 -17.743,-40.043 -17.743,-40.534C-17.743,-41.025 -17.462,-41.376 -17.182,-41.376C-13.886,-42.218 -11.01,-43.27 -8.696,-45.022C-8.416,-45.163 -8.205,-45.584 -7.714,-45.584C-7.153,-45.584 -6.732,-45.303 -6.732,-45.022L-7.013,-40.605C-4.418,-43.27 -0.631,-45.303 1.753,-45.303C11.782,-45.303 16.761,-37.869 16.761,-28.893C16.761,-19.986 10.169,-12.903 0.14,-12.903" style="fill:rgb(35,31,32);fill-rule:nonzero;"/>
        </g>
        <g transform="matrix(1.06945,0,0,1.22581,214.516,330.246)">
            <path d="M0,-15.71L-10.45,-15.99L-10.45,0.841C-10.45,5.259 -9.047,7.434 -5.751,7.434C-3.507,7.434 -2.104,7.013 -0.562,6.101C-0.21,5.891 0.28,6.592 0.28,7.223C0.28,7.503 0.14,7.784 -0.07,7.994C-2.244,9.817 -4.629,11.08 -8.206,11.08C-13.886,11.08 -17.042,7.152 -16.972,1.893L-16.831,-15.148C-16.831,-15.64 -17.112,-16.13 -17.673,-16.13L-20.338,-16.13C-20.829,-16.13 -21.109,-16.621 -21.109,-17.042C-21.109,-17.463 -20.759,-17.954 -20.478,-18.094C-17.182,-20.058 -14.167,-23.073 -11.992,-26.229C-11.852,-26.439 -11.572,-26.79 -11.011,-26.79C-10.52,-26.79 -10.029,-26.51 -10.029,-26.229L-10.309,-19.496L0,-19.496C0.561,-19.496 0.912,-18.655 0.912,-17.603C0.912,-16.481 0.561,-15.71 0,-15.71" style="fill:rgb(35,31,32);fill-rule:nonzero;"/>
        </g>
        <g transform="matrix(1.06945,0,0,1.22581,228.089,333.943)">
            <path d="M0,-32.471C-2.034,-32.471 -3.646,-34.154 -3.646,-36.117C-3.646,-38.152 -2.034,-39.764 0,-39.764C2.034,-39.764 3.646,-38.152 3.646,-36.117C3.646,-34.154 2.034,-32.471 0,-32.471M7.995,7.293C5.049,7.293 3.437,6.872 0.07,6.872C-3.296,6.872 -4.839,7.293 -7.784,7.293C-8.135,7.293 -8.345,6.872 -8.345,6.311C-8.345,5.75 -8.135,5.399 -7.784,5.329C-3.717,4.838 -3.086,3.926 -3.086,-0.562L-3.086,-13.535C-3.086,-17.253 -3.646,-18.024 -6.943,-18.374C-7.293,-18.374 -7.504,-18.795 -7.504,-19.286C-7.504,-19.778 -7.293,-20.128 -6.943,-20.128C-3.646,-20.97 -0.491,-22.022 1.823,-23.775C2.104,-23.915 2.244,-24.336 2.805,-24.336C3.366,-24.336 3.787,-24.055 3.787,-23.775C3.577,-20.829 3.226,-15.219 3.226,-11.573L3.226,-0.562C3.226,3.926 3.857,4.838 7.995,5.329C8.275,5.399 8.556,5.75 8.556,6.311C8.556,6.872 8.275,7.293 7.995,7.293" style="fill:rgb(35,31,32);fill-rule:nonzero;"/>
        </g>
        <g transform="matrix(1.06945,0,0,1.22581,291.914,313.483)">
            <path d="M0,-1.964L-10.449,-2.244L-10.449,14.516C-10.449,18.934 -9.117,21.109 -5.75,21.109C-3.506,21.109 -2.104,20.688 -0.561,19.776C-0.281,19.566 0.21,20.267 0.21,20.898C0.21,21.179 0.14,21.529 -0.14,21.67C-2.244,23.563 -4.628,24.756 -8.275,24.756C-13.956,24.756 -17.112,20.828 -17.042,15.568L-16.901,-1.402C-16.901,-1.964 -17.182,-2.385 -17.743,-2.385L-20.408,-2.385C-20.829,-2.385 -21.109,-2.945 -21.109,-3.366C-21.109,-3.787 -20.829,-4.208 -20.478,-4.418C-17.182,-6.312 -16.13,-7.714 -16.13,-10.239C-16.13,-17.883 -19.215,-23.844 -26.649,-23.844C-32.891,-23.844 -37.099,-19.426 -37.099,-13.675C-37.099,-9.818 -35.626,-7.574 -31.558,-6.523C-30.436,-6.241 -29.104,-6.031 -28.402,-6.031C-28.333,-3.647 -28.192,-1.402 -27.981,0.631C-27.912,0.981 -28.473,1.192 -28.963,1.192C-29.455,1.192 -29.875,1.052 -29.945,0.631C-30.436,-2.665 -32.61,-5.05 -35.556,-5.05C-39.343,-5.05 -41.026,-3.366 -41.026,-0.28C-41.026,6.241 -25.597,6.522 -25.597,14.937C-25.597,20.828 -30.927,25.036 -37.099,25.036C-40.184,25.036 -43.761,23.773 -45.865,23.773C-46.145,21.39 -46.776,18.163 -47.127,16.34C-47.197,16.059 -46.706,15.779 -46.145,15.779C-45.654,15.779 -45.233,15.989 -45.164,16.34C-44.111,19.636 -40.535,22.792 -37.028,22.792C-33.452,22.792 -31.558,20.688 -31.558,17.322C-31.558,10.449 -46.636,11.922 -46.636,1.682C-46.636,-2.945 -42.428,-6.592 -37.379,-7.224C-38.431,-8.415 -39.623,-10.87 -39.623,-13.255C-39.623,-21.74 -32.821,-27 -24.686,-27C-16.27,-27 -10.379,-20.548 -10.379,-11.712L-10.379,-5.82L0,-5.82C0.561,-5.82 0.912,-4.909 0.912,-3.927C0.912,-2.806 0.561,-1.964 0,-1.964" style="fill:rgb(35,31,32);fill-rule:nonzero;"/>
        </g>
        <g transform="matrix(1.06945,0,0,1.22581,313.287,341.421)">
            <path d="M0,-27.911C-3.927,-27.911 -6.522,-24.124 -7.364,-19.706L2.384,-19.986C5.891,-20.057 6.452,-20.688 6.452,-21.81C6.452,-25.177 3.998,-27.911 0,-27.911M11.572,-17.742L-7.644,-17.742C-7.784,-16.48 -7.854,-15.147 -7.854,-13.815C-7.854,-5.961 -3.787,-2.103 2.455,-2.103C6.171,-2.103 9.748,-4.418 11.572,-6.803C11.782,-7.153 12.624,-6.592 12.624,-5.61C12.624,-5.4 12.553,-5.26 12.413,-5.049C10.168,-1.753 5.961,2.244 0,2.244C-8.486,2.244 -14.938,-4.839 -14.938,-13.745C-14.938,-22.23 -9.257,-30.155 0,-30.155C8.416,-30.155 12.833,-23.353 12.833,-18.724C12.833,-18.094 12.343,-17.742 11.572,-17.742" style="fill:rgb(35,31,32);fill-rule:nonzero;"/>
        </g>
        <g transform="matrix(-1.06945,0,0,1.22581,414.595,-226.13)">
            <rect x="82.875" y="368.885" width="235.039" height="1.521" style="fill:rgb(35,31,32);"/>
        </g>
        <g transform="matrix(-1.06945,0,0,1.22581,510.585,34.3246)">
            <rect x="172.631" y="262.647" width="145.283" height="1.521" style="fill:rgb(35,31,32);"/>
        </g>
        <g transform="matrix(-1.06945,0,0,1.22581,232.377,34.3246)">
            <rect x="82.875" y="262.647" width="64.655" height="1.521" style="fill:rgb(35,31,32);"/>
        </g>
    </g>
</svg>
